<?xml version="1.0" encoding="UTF-8"?>
<svg version="1.1" xmlns="http://www.w3.org/2000/svg" width="100" height="100">
<path d="M0 0 C9.40707465 5.68464327 15.68680199 13.83643636 18.546875 24.5390625 C19.81816587 35.18018906 19.08411233 45.14253855 13.546875 54.5390625 C12.556875 55.5290625 12.556875 55.5290625 11.546875 56.5390625 C13.031875 57.0340625 13.031875 57.0340625 14.546875 57.5390625 C14.546875 58.8590625 14.546875 60.1790625 14.546875 61.5390625 C13.226875 61.5390625 11.906875 61.5390625 10.546875 61.5390625 C10.216875 60.8790625 9.886875 60.2190625 9.546875 59.5390625 C9.01320313 59.99796875 8.47953125 60.456875 7.9296875 60.9296875 C-2.56169886 69.56965274 -11.91574525 71.83539098 -25.31445312 70.80957031 C-34.8744138 69.60038807 -42.8797787 64.22976046 -48.828125 56.828125 C-51.453125 53.09114583 -51.453125 53.09114583 -51.453125 50.5390625 C-52.2575 50.5596875 -53.061875 50.5803125 -53.890625 50.6015625 C-56.453125 50.5390625 -56.453125 50.5390625 -57.453125 49.5390625 C-57.578125 46.5390625 -57.578125 46.5390625 -57.453125 43.5390625 C-56.958125 43.0440625 -56.958125 43.0440625 -56.453125 42.5390625 C-56.37687052 40.5797461 -56.30610979 38.62003955 -56.26513672 36.65966797 C-55.96707395 24.96481162 -53.82146128 15.03480794 -45.4765625 6.2890625 C-32.87910695 -4.60603419 -15.10756629 -7.47031593 0 0 Z " fill="#FADEA0" transform="translate(68.453125,16.4609375)"/>
<path d="M0 0 C2.125 0.75 2.125 0.75 3.8671875 2.28515625 C6.84825505 4.21923987 8.85582315 4.05225577 12.375 3.9375 C13.45265625 3.91042969 14.5303125 3.88335938 15.640625 3.85546875 C16.46046875 3.82066406 17.2803125 3.78585938 18.125 3.75 C18.97453408 6.65469438 19.38159681 8.17341188 18.12890625 10.98828125 C17.41541016 12.01501953 17.41541016 12.01501953 16.6875 13.0625 C16.21441406 13.75988281 15.74132812 14.45726562 15.25390625 15.17578125 C14.69509766 15.95501953 14.69509766 15.95501953 14.125 16.75 C14.73601563 17.0490625 15.34703125 17.348125 15.9765625 17.65625 C23.57280371 21.52342734 27.22081129 28.33574436 30.5 35.9375 C31.55190694 40.67108122 31.57519688 44.37292718 30.0625 49 C27.58387871 52.51804312 25.19640693 53.72323538 21.125 54.75 C16.43166595 55.18194501 11.77259357 55.16872444 7.0625 55.125 C5.18208008 55.14240234 5.18208008 55.14240234 3.26367188 55.16015625 C1.44512695 55.15435547 1.44512695 55.15435547 -0.41015625 55.1484375 C-1.507229 55.14505371 -2.60430176 55.14166992 -3.73461914 55.13818359 C-8.10326826 54.59817332 -11.42930291 53.00293748 -14.75 50.125 C-17.14684689 45.06498991 -16.29491952 39.50752513 -14.8125 34.25 C-12.51928223 28.00674205 -8.40474572 22.43649715 -2.875 18.75 C-5.185 18.42 -7.495 18.09 -9.875 17.75 C-10.5 15.875 -10.5 15.875 -10.875 13.75 C-10.215 13.09 -9.555 12.43 -8.875 11.75 C-6.04542171 12.11276645 -3.58415709 12.84694764 -0.875 13.75 C-1.555625 12.71875 -2.23625 11.6875 -2.9375 10.625 C-4.59218724 7.74829991 -4.87841432 6.84218663 -4.75 3.375 C-4.46125 2.50875 -4.1725 1.6425 -3.875 0.75 C-1.875 -0.25 -1.875 -0.25 0 0 Z " fill="#04A497" transform="translate(42.875,20.25)"/>
<path d="M0 0 C2.125 0.75 2.125 0.75 3.8671875 2.28515625 C6.84825505 4.21923987 8.85582315 4.05225577 12.375 3.9375 C13.45265625 3.91042969 14.5303125 3.88335938 15.640625 3.85546875 C16.46046875 3.82066406 17.2803125 3.78585938 18.125 3.75 C18.97453408 6.65469438 19.38159681 8.17341188 18.12890625 10.98828125 C17.41541016 12.01501953 17.41541016 12.01501953 16.6875 13.0625 C16.21441406 13.75988281 15.74132812 14.45726562 15.25390625 15.17578125 C14.69509766 15.95501953 14.69509766 15.95501953 14.125 16.75 C14.73601563 17.0490625 15.34703125 17.348125 15.9765625 17.65625 C23.57280371 21.52342734 27.22081129 28.33574436 30.5 35.9375 C31.55190694 40.67108122 31.57519688 44.37292718 30.0625 49 C27.58387871 52.51804312 25.19640693 53.72323538 21.125 54.75 C16.43166595 55.18194501 11.77259357 55.16872444 7.0625 55.125 C5.18208008 55.14240234 5.18208008 55.14240234 3.26367188 55.16015625 C1.44512695 55.15435547 1.44512695 55.15435547 -0.41015625 55.1484375 C-1.507229 55.14505371 -2.60430176 55.14166992 -3.73461914 55.13818359 C-8.10326826 54.59817332 -11.42930291 53.00293748 -14.75 50.125 C-17.14684689 45.06498991 -16.29491952 39.50752513 -14.8125 34.25 C-12.51928223 28.00674205 -8.40474572 22.43649715 -2.875 18.75 C-5.185 18.42 -7.495 18.09 -9.875 17.75 C-10.5 15.875 -10.5 15.875 -10.875 13.75 C-10.215 13.09 -9.555 12.43 -8.875 11.75 C-6.04542171 12.11276645 -3.58415709 12.84694764 -0.875 13.75 C-1.555625 12.71875 -2.23625 11.6875 -2.9375 10.625 C-4.59218724 7.74829991 -4.87841432 6.84218663 -4.75 3.375 C-4.46125 2.50875 -4.1725 1.6425 -3.875 0.75 C-1.875 -0.25 -1.875 -0.25 0 0 Z M1.125 17.75 C-1.91410346 23.696072 -2.52726572 29.11906706 -2.875 35.75 C-3.535 35.75 -4.195 35.75 -4.875 35.75 C-4.545 33.77 -4.215 31.79 -3.875 29.75 C-4.865 29.75 -5.855 29.75 -6.875 29.75 C-6.215 27.44 -5.555 25.13 -4.875 22.75 C-10.00273949 27.30799066 -13.32470159 31.82657617 -14.296875 38.7578125 C-14.51791907 43.75586459 -14.56634202 46.74261592 -11.6875 50.9375 C-5.91057196 54.66040918 0.78110274 53.96631804 7.4375 54 C8.44490234 54.020625 9.45230469 54.04125 10.49023438 54.0625 C16.74857593 54.09511676 21.47829222 53.5311173 27.125 50.75 C30.13519381 46.23470928 29.80374703 42.04145647 29.125 36.75 C26.41678527 28.91632102 21.74980309 21.45936367 14.125 17.75 C13.465 17.75 12.805 17.75 12.125 17.75 C12.125 18.74 12.125 19.73 12.125 20.75 C11.465 20.09 10.805 19.43 10.125 18.75 C7.92249008 18.28993654 7.92249008 18.28993654 5.5 18.125 C4.68273437 18.05023438 3.86546875 17.97546875 3.0234375 17.8984375 C2.39695312 17.84945312 1.77046875 17.80046875 1.125 17.75 Z " fill="#55473D" transform="translate(42.875,20.25)"/>
<path d="M0 0 C2.8992226 0.46761655 3.86675182 0.86675182 6 3 C9.12814514 3.24360073 9.12814514 3.24360073 12.625 3.125 C13.81351563 3.10695313 15.00203125 3.08890625 16.2265625 3.0703125 C17.59941406 3.03550781 17.59941406 3.03550781 19 3 C18.33504438 7.99766643 17.01097515 10.92061431 14 15 C13.01 14.67 12.02 14.34 11 14 C10.67 14.66 10.34 15.32 10 16 C6.88598183 15.68170172 5.39427787 15.413949 3.19921875 13.109375 C2.45091797 11.94148438 2.45091797 11.94148438 1.6875 10.75 C1.17574219 9.98171875 0.66398437 9.2134375 0.13671875 8.421875 C-1.13554473 5.71121054 -1.30102642 3.95924278 -1 1 C-0.67 0.67 -0.34 0.34 0 0 Z " fill="#02A194" transform="translate(41,22)"/>
<path d="M0 0 C4.32825578 0.37099335 8.13072628 2.10186572 12 4 C12.99 5.485 12.99 5.485 14 7 C12.68 7 11.36 7 10 7 C7.59616001 15.40927879 7.59616001 15.40927879 6 24 C5.34 24 4.68 24 4 24 C4 22.35 4 20.7 4 19 C3.34 18.67 2.68 18.34 2 18 C1.67 18.66 1.34 19.32 1 20 C1.33 18.02 1.66 16.04 2 14 C-3.42074516 20.13400111 -4.1922307 25.98258829 -5 34 C-5.33 34 -5.66 34 -6 34 C-6.83341627 25.01762466 -5.74995213 19.08383742 0 12 C1.92121387 10.08311319 3.78211621 8.58420271 6 7 C3.69 6.67 1.38 6.34 -1 6 C-1.625 4.125 -1.625 4.125 -2 2 C-1.34 1.34 -0.68 0.68 0 0 Z " fill="#4B413B" transform="translate(34,32)"/>
<path d="M0 0 C8.41874331 2.88642628 11.99027518 8.39928745 16 16 C17.01646891 19.04940673 17.19844676 21.30369903 17.25 24.5 C17.27578125 25.4590625 17.3015625 26.418125 17.328125 27.40625 C17 30 17 30 15.734375 31.84375 C14 33 14 33 10 33 C10 32.34 10 31.68 10 31 C10.99 30.34 11.98 29.68 13 29 C13.47834916 27.00397617 13.47834916 27.00397617 13.375 24.75 C13.38273437 24.00234375 13.39046875 23.2546875 13.3984375 22.484375 C12.42979419 16.44459909 8.71929898 12.18625105 4.8125 7.75 C0 2.26147427 0 2.26147427 0 0 Z " fill="#13847A" transform="translate(55,38)"/>
<path d="M0 0 C0.66 0 1.32 0 2 0 C2 0.99 2 1.98 2 3 C3.32 3.66 4.64 4.32 6 5 C6 5.99 6 6.98 6 8 C5.01 8 4.02 8 3 8 C3 7.34 3 6.68 3 6 C1.68 6 0.36 6 -1 6 C-0.26600588 9.2942379 -0.26600588 9.2942379 3.0625 10.8125 C4.031875 11.534375 5.00125 12.25625 6 13 C6.375 16.25 6.375 16.25 6 19 C4.68 19.33 3.36 19.66 2 20 C2 20.99 2 21.98 2 23 C1.34 23 0.68 23 0 23 C0 22.34 0 21.68 0 21 C-0.639375 20.7525 -1.27875 20.505 -1.9375 20.25 C-4 19 -4 19 -4.75 16.875 C-4.8325 16.25625 -4.915 15.6375 -5 15 C-4.01 15 -3.02 15 -2 15 C-1.67 15.66 -1.34 16.32 -1 17 C-0.01 17 0.98 17 2 17 C2.33 16.01 2.66 15.02 3 14 C2.030625 13.690625 1.06125 13.38125 0.0625 13.0625 C-3 12 -3 12 -4 11 C-4.04080783 9.00041636 -4.04254356 6.99954746 -4 5 C-2.68 4.34 -1.36 3.68 0 3 C0 2.01 0 1.02 0 0 Z " fill="#E8F7F5" transform="translate(49,44)"/>
<path d="M0 0 C3 0.125 3 0.125 4 1.125 C4.125 4.125 4.125 4.125 4 7.125 C3 8.125 3 8.125 0 8.25 C-3 8.125 -3 8.125 -4 7.125 C-4.125 4.125 -4.125 4.125 -4 1.125 C-3 0.125 -3 0.125 0 0 Z " fill="#F0BB19" transform="translate(83,10.875)"/>
<path d="M0 0 C2.5625 0.1875 2.5625 0.1875 4.5625 2.1875 C4.00694444 6.74305556 4.00694444 6.74305556 2.5625 8.1875 C0.0625 8.3125 0.0625 8.3125 -2.4375 8.1875 C-3.4375 7.1875 -3.4375 7.1875 -3.5625 4.1875 C-3.39891479 0.26145498 -3.39891479 0.26145498 0 0 Z " fill="#FACD5A" transform="translate(14.4375,58.8125)"/>
<path d="M0 0 C0.66 0.66 1.32 1.32 2 2 C1.5390625 5.2578125 1.5390625 5.2578125 0.625 9.125 C0.18027344 11.04699219 0.18027344 11.04699219 -0.2734375 13.0078125 C-0.51320313 13.99523438 -0.75296875 14.98265625 -1 16 C-1.66 16 -2.32 16 -3 16 C-3 14.35 -3 12.7 -3 11 C-3.66 10.67 -4.32 10.34 -5 10 C-5.33 10.66 -5.66 11.32 -6 12 C-5.67 10.02 -5.34 8.04 -5 6 C-4.01 5.67 -3.02 5.34 -2 5 C-0.78130071 2.49552484 -0.78130071 2.49552484 0 0 Z " fill="#344B46" transform="translate(41,40)"/>
<path d="M0 0 C1.65 0 3.3 0 5 0 C4.52583422 4.97874064 3.0900669 8.06718758 0 12 C-0.66 12 -1.32 12 -2 12 C-1.39301257 7.87248551 0.03810791 4.6678852 2 1 C1.34 0.67 0.68 0.34 0 0 Z " fill="#0F8A7F" transform="translate(55,25)"/>
<path d="M0 0 C2.61580479 0.3269756 4.64078137 0.82039068 7 2 C7 2.99 7 3.98 7 5 C4.36 5.33 1.72 5.66 -1 6 C-1.625 4.125 -1.625 4.125 -2 2 C-1.34 1.34 -0.68 0.68 0 0 Z " fill="#A78B69" transform="translate(34,32)"/>
<path d="M0 0 C1 2 1 2 0.0625 5.125 C-0.288125 6.07375 -0.63875 7.0225 -1 8 C-1.99 8 -2.98 8 -4 8 C-4.33 8.66 -4.66 9.32 -5 10 C-4.67 8.02 -4.34 6.04 -4 4 C-3.01 3.67 -2.02 3.34 -1 3 C-0.67 2.01 -0.34 1.02 0 0 Z " fill="#1E7168" transform="translate(40,42)"/>
<path d="M0 0 C1.98 0.495 1.98 0.495 4 1 C3.67 2.32 3.34 3.64 3 5 C1.68 4.67 0.36 4.34 -1 4 C-0.67 2.68 -0.34 1.36 0 0 Z " fill="#FEFBF4" transform="translate(17,51)"/>
<path d="M0 0 C3.875 4.75 3.875 4.75 5 7 C2.03 6.01 -0.94 5.02 -4 4 C-3.01 3.67 -2.02 3.34 -1 3 C-0.67 2.01 -0.34 1.02 0 0 Z " fill="#364742" transform="translate(52,35)"/>
<path d="M0 0 C2.0625 0.4375 2.0625 0.4375 4 1 C4.33 2.32 4.66 3.64 5 5 C4.01 5 3.02 5 2 5 C0.3125 3 0.3125 3 -1 1 C-0.67 0.67 -0.34 0.34 0 0 Z " fill="#F2FAFA" transform="translate(50,47)"/>
<path d="M0 0 C1.32 0 2.64 0 4 0 C4 1.32 4 2.64 4 4 C2.68 4 1.36 4 0 4 C0 2.68 0 1.36 0 0 Z " fill="#ED3D53" transform="translate(23,85)"/>
<path d="M0 0 C1.32 0 2.64 0 4 0 C4 1.32 4 2.64 4 4 C2.68 4 1.36 4 0 4 C0 2.68 0 1.36 0 0 Z " fill="#ED3D53" transform="translate(11,27)"/>
<path d="M0 0 C1.32 0 2.64 0 4 0 C4 1.32 4 2.64 4 4 C2.68 4 1.36 4 0 4 C0 2.68 0 1.36 0 0 Z " fill="#ED3D53" transform="translate(85,22)"/>
<path d="M0 0 C0.66 0 1.32 0 2 0 C2 0.66 2 1.32 2 2 C1.34 2 0.68 2 0 2 C0 1.34 0 0.68 0 0 Z " fill="#F0BB18" transform="translate(76,12)"/>
</svg>
